<svg width="60" height="60" viewBox="0 0 60 60" fill="none" xmlns="http://www.w3.org/2000/svg">
<path d="M30 60C46.5685 60 60 46.5685 60 30C60 13.4315 46.5685 0 30 0C13.4315 0 -2.47942e-07 13.4315 -5.53795e-07 30C-8.59647e-07 46.5685 13.4315 60 30 60Z" fill="#C6CBD0"/>
<path d="M30 43.5C28.6201 43.5 27.5 42.3799 27.5 41C27.5 39.6201 28.6201 38.5 30 38.5C31.3799 38.5 32.5 39.6201 32.5 41C32.5 42.3799 31.3799 43.5 30 43.5Z" fill="white" stroke="white"/>
<path d="M30 33L30 17" stroke="white" stroke-width="4" stroke-miterlimit="10" stroke-linecap="round"/>
</svg>
