<svg width="19" height="14" viewBox="0 0 19 14" fill="none" xmlns="http://www.w3.org/2000/svg">
<path d="M1.75 13.25V0.75H10L12 2.5L14.125 0.75H18.25V13.25H14.125L12 12L10 13.25H1.75Z" fill="white"/>
<path d="M12 11.5L12 3C12 1.89543 11.1046 1 10 1L4.75 1C3.09315 1 1.75 2.34315 1.75 4L1.75 10.5C1.75 12.1569 3.09315 13.5 4.75 13.5L10 13.5C11.1046 13.5 12 12.6046 12 11.5Z" fill="#FFD338"/>
<path d="M11.8031 2.23752L11.3259 2.81606L11.8031 2.23752ZM12.4395 2.23752L12.9168 2.81606L12.4395 2.23752ZM12.4395 11.7625L11.9622 12.341L11.9622 12.341L12.4395 11.7625ZM11.8031 11.7625L12.2804 12.341L12.2804 12.341L11.8031 11.7625ZM10.1386 13.1357L9.66129 12.5572L10.1386 13.1357ZM14.1041 13.1357L14.5814 12.5572L14.1041 13.1357ZM14.1041 0.864306L14.5814 1.44285L14.1041 0.864306ZM10.1386 0.864306L10.6158 0.285765L10.1386 0.864306ZM0.75 2.75V11.25H2.25V2.75H0.75ZM3.5 0C1.98122 0 0.75 1.23122 0.75 2.75H2.25C2.25 2.05964 2.80964 1.5 3.5 1.5V0ZM9.82038 0H3.5V1.5H9.82038V0ZM12.2804 1.65898L10.6158 0.285765L9.66129 1.44285L11.3259 2.81606L12.2804 1.65898ZM11.9622 1.65898C12.0546 1.58278 12.188 1.58278 12.2804 1.65898L11.3259 2.81606C11.7877 3.19708 12.4549 3.19708 12.9168 2.81606L11.9622 1.65898ZM13.6268 0.285765L11.9622 1.65898L12.9168 2.81606L14.5814 1.44285L13.6268 0.285765ZM16 0H14.4223V1.5H16V0ZM18.75 2.75C18.75 1.23122 17.5188 0 16 0V1.5C16.6904 1.5 17.25 2.05964 17.25 2.75H18.75ZM18.75 11.25V2.75H17.25V11.25H18.75ZM16 14C17.5188 14 18.75 12.7688 18.75 11.25H17.25C17.25 11.9404 16.6904 12.5 16 12.5V14ZM14.4223 14H16V12.5H14.4223V14ZM11.9622 12.341L13.6268 13.7142L14.5814 12.5572L12.9168 11.1839L11.9622 12.341ZM12.2804 12.341C12.188 12.4172 12.0546 12.4172 11.9622 12.341L12.9168 11.1839C12.4549 10.8029 11.7877 10.8029 11.3259 11.1839L12.2804 12.341ZM10.6158 13.7142L12.2804 12.341L11.3259 11.1839L9.66129 12.5572L10.6158 13.7142ZM3.5 14H9.82038V12.5H3.5V14ZM0.75 11.25C0.75 12.7688 1.98122 14 3.5 14V12.5C2.80964 12.5 2.25 11.9404 2.25 11.25H0.75ZM9.66129 12.5572C9.70608 12.5202 9.76232 12.5 9.82038 12.5V14C10.1107 14 10.3919 13.899 10.6158 13.7142L9.66129 12.5572ZM14.4223 12.5C14.4803 12.5 14.5366 12.5202 14.5814 12.5572L13.6268 13.7142C13.8507 13.899 14.132 14 14.4223 14V12.5ZM14.5814 1.44285C14.5366 1.47979 14.4803 1.5 14.4223 1.5V0C14.132 0 13.8507 0.101035 13.6268 0.285765L14.5814 1.44285ZM9.82038 1.5C9.76232 1.5 9.70607 1.47979 9.66129 1.44285L10.6158 0.285765C10.3919 0.101035 10.1107 0 9.82038 0V1.5Z" fill="#484B51"/>
<path d="M12 5C12 5 12 5.60948 12 6" stroke="#484B51" stroke-width="1.5" stroke-linecap="round"/>
<path d="M12 8.5C12 8.5 12 9.10948 12 9.5" stroke="#484B51" stroke-width="1.5" stroke-linecap="round"/>
</svg>
